# xmcd
#
# Track frame offsets: 
#        150
#        14511
#        34428
#        51612
#        70473
#        88872
#        109600
#        128047
#        144314
#        163241
#        176826
#        191796
#
# Disc length: 2807 seconds
#
# Revision: 0
# Processed by: cddbd v1.5.2PL0 Copyright (c) Steve Scherf et al.
# Submitted via: ExactAudioCopyFreeDBPlugin 1.0
#
DISCID=b90af50c
DTITLE=Annika Chambers - Wild and Free
DYEAR=2016
DGENRE=Blues
TTITLE0=Raggedy And Dirty
TTITLE1=City In The Sky
TTITLE2=Better Things To Do
TTITLE3=Give Up Myself
TTITLE4=Six Nights And A Day
TTITLE5=Put The Sugar To Bed
TTITLE6=Reality
TTITLE7=Don't Try And Stop The Rain
TTITLE8=Why Me
TTITLE9=I Prefer You
TTITLE10=Piece By Piece
TTITLE11=Love God
EXTD=
EXTT0=
EXTT1=
EXTT2=
EXTT3=
EXTT4=
EXTT5=
EXTT6=
EXTT7=
EXTT8=
EXTT9=
EXTT10=
EXTT11=
PLAYORDER=
